<?xml version="1.0" standalone="no"?>
<!DOCTYPE svg PUBLIC "-//W3C//DTD SVG 20010904//EN"
 "http://www.w3.org/TR/2001/REC-SVG-20010904/DTD/svg10.dtd">
<svg version="1.0" xmlns="http://www.w3.org/2000/svg"
 width="512.000000pt" height="512.000000pt" viewBox="0 0 512.000000 512.000000"
 preserveAspectRatio="xMidYMid meet">
<metadata>
Created by potrace 1.16, written by Peter Selinger 2001-2019
</metadata>
<g transform="translate(0.000000,512.000000) scale(0.100000,-0.100000)"
fill="#000000" stroke="none">
<path d="M3393 4724 c-3 -8 -1 -26 5 -40 9 -18 19 -24 45 -24 70 0 114 45 68
70 -31 16 -111 13 -118 -6z m77 -9 c10 -12 10 -18 0 -30 -7 -8 -16 -15 -21
-15 -13 0 -39 30 -39 46 0 19 44 18 60 -1z"/>
<path d="M1924 4572 c-6 -4 -11 -30 -11 -58 -1 -48 1 -51 31 -62 40 -15 101
-15 127 -2 14 8 19 21 19 51 0 69 -11 79 -88 79 -37 0 -72 -4 -78 -8z m117
-17 c9 -6 22 -21 28 -33 11 -21 10 -27 -8 -46 -27 -28 -74 -26 -107 5 -28 26
-29 37 -9 65 15 23 66 27 96 9z"/>
<path d="M1980 4525 c-11 -13 -11 -19 3 -33 20 -19 41 -5 35 24 -4 24 -22 28
-38 9z"/>
<path d="M4212 4508 c-6 -6 -12 -25 -12 -41 0 -26 3 -28 33 -25 29 3 32 6 32
38 0 27 -4 36 -20 38 -11 1 -26 -3 -33 -10z"/>
<path d="M2962 4473 c-30 -4 -33 -7 -28 -28 4 -14 0 -27 -9 -35 -36 -30 3
-120 51 -120 10 0 25 -7 34 -15 12 -11 30 -13 71 -8 98 11 134 80 87 162 -19
34 -28 40 -67 45 -45 6 -81 6 -139 -1z m148 -32 c61 -32 76 -86 35 -126 -18
-19 -35 -25 -68 -25 -40 0 -75 18 -61 32 2 3 -9 20 -27 37 -25 26 -29 34 -19
46 16 20 29 19 53 -2 19 -17 20 -17 8 5 -7 12 -21 22 -34 22 -21 1 -21 1 3 15
34 20 69 18 110 -4z"/>
<path d="M3804 4456 c-12 -31 0 -51 34 -54 32 -3 33 -2 30 30 -2 28 -7 34 -31
36 -17 2 -29 -2 -33 -12z"/>
<path d="M1065 4400 c-3 -10 -1 -29 5 -40 15 -28 83 -25 88 3 9 46 -79 81 -93
37z"/>
<path d="M1438 4381 c-43 -15 -47 -19 -46 -46 1 -16 -2 -46 -6 -66 -7 -33 -5
-38 25 -64 32 -26 37 -27 114 -23 65 3 85 8 102 25 36 36 35 153 -2 153 -7 0
-24 9 -38 20 -30 24 -81 24 -149 1z m161 -46 c17 -20 31 -47 31 -60 0 -29 -32
-65 -57 -64 -11 0 -13 3 -5 6 20 8 15 87 -7 114 -25 31 -34 21 -19 -19 15 -38
5 -59 -36 -82 -26 -14 -28 -14 -57 18 -35 39 -28 63 24 87 32 15 10 14 -28 -1
-20 -7 -20 -7 -1 14 15 17 30 22 72 22 47 0 55 -3 83 -35z"/>
<path d="M2230 4346 c0 -9 -11 -22 -25 -28 -14 -6 -25 -15 -25 -19 0 -5 -11
-25 -25 -45 -23 -35 -26 -46 -24 -133 1 -71 6 -102 19 -124 22 -36 92 -77 131
-77 42 0 134 -55 173 -104 35 -43 83 -132 96 -178 7 -23 6 -26 -12 -23 -30 6
-126 92 -149 134 -36 66 -69 105 -101 118 -50 21 -194 17 -258 -8 -66 -25 -82
-25 -152 0 -44 16 -87 20 -246 24 -151 3 -195 1 -203 -9 -14 -17 -67 -44 -86
-44 -7 0 -18 -11 -23 -25 -7 -18 -17 -25 -35 -25 -20 0 -25 -5 -25 -26 0 -17
-6 -28 -19 -31 -11 -3 -21 -17 -25 -34 -4 -20 -13 -30 -31 -35 -21 -5 -25 -12
-25 -40 0 -20 -11 -50 -25 -72 -50 -77 -73 -195 -41 -221 18 -15 9 -47 -20
-70 -13 -10 -24 -27 -24 -37 0 -37 -12 -43 -63 -32 -43 9 -57 28 -21 28 8 0
14 9 14 20 0 22 -29 27 -47 9 -7 -7 -17 -8 -29 -1 -22 12 -164 17 -356 13
-128 -3 -138 -4 -138 -22 0 -12 7 -19 20 -19 11 0 20 -4 20 -10 0 -5 -6 -10
-14 -10 -8 0 -18 -9 -21 -20 -6 -20 -24 -27 -80 -32 -27 -3 -30 -6 -31 -39 -2
-58 -9 -69 -49 -69 -36 0 -46 -18 -26 -49 6 -9 2 -26 -10 -48 -10 -18 -19 -50
-19 -69 0 -27 -5 -37 -20 -41 -16 -4 -20 -14 -20 -47 0 -45 -13 -66 -41 -66
-26 0 -32 -87 -25 -361 3 -129 6 -253 5 -276 0 -23 5 -44 11 -48 16 -10 12
-45 -5 -45 -8 0 -15 -9 -15 -20 0 -17 7 -20 39 -20 25 0 46 -7 56 -17 9 -10
46 -48 83 -85 45 -46 61 -68 50 -68 -11 0 -18 -8 -18 -20 0 -13 7 -20 20 -20
11 0 20 7 20 15 0 19 14 19 30 0 7 -8 20 -15 29 -15 48 0 82 -62 41 -75 -11
-3 -20 -15 -20 -25 0 -19 -32 -85 -51 -104 -5 -6 -9 -22 -9 -37 0 -15 -10 -49
-22 -76 -18 -40 -22 -65 -21 -149 0 -92 3 -106 29 -155 56 -103 252 -279 384
-344 19 -10 42 -23 50 -30 8 -6 31 -18 50 -25 129 -47 211 -87 216 -103 5 -15
12 -18 38 -13 21 4 44 0 71 -14 22 -11 46 -20 53 -20 8 0 42 -13 76 -29 33
-16 77 -31 96 -34 19 -3 82 -17 140 -32 90 -23 125 -26 265 -27 184 -1 223 9
251 64 9 18 36 60 61 92 65 87 93 155 93 226 0 51 3 61 26 79 27 21 48 53 84
127 10 23 26 44 34 47 8 3 18 33 25 72 7 37 16 74 21 83 4 10 14 32 20 49 7
19 19 33 29 33 21 0 45 54 38 88 -8 42 23 102 56 109 29 6 34 22 16 54 -8 15
-6 25 10 45 l19 25 11 -33 c6 -18 15 -64 21 -102 6 -38 15 -77 20 -87 7 -12 6
-19 -2 -21 -13 -5 -13 -3 25 -130 6 -24 12 -73 11 -110 0 -46 4 -69 13 -72 7
-3 10 -12 7 -21 -4 -10 2 -24 16 -37 22 -20 23 -26 17 -120 -4 -70 -2 -112 7
-141 25 -78 35 -122 41 -171 5 -38 16 -60 48 -97 47 -55 104 -82 207 -99 90
-15 623 -7 715 10 39 8 96 14 128 14 40 0 57 4 57 13 0 13 35 18 101 14 22 -1
41 4 49 13 7 10 21 14 35 10 16 -4 24 0 27 14 4 15 20 22 68 30 38 7 72 20 86
33 17 16 32 20 65 17 39 -3 44 -1 47 20 4 24 36 47 53 37 22 -14 58 5 61 32 2
14 12 31 23 37 30 17 63 53 70 78 4 13 14 39 23 58 20 42 21 154 2 220 -7 25
-14 75 -17 112 -5 67 -4 68 24 79 15 6 55 24 88 40 33 16 68 29 79 29 10 0 27
11 38 25 11 14 27 25 36 25 23 1 52 24 52 42 0 9 7 21 15 28 9 7 32 41 53 74
l36 61 0 265 c0 236 -3 274 -22 350 -11 47 -21 99 -21 116 -1 17 -9 53 -20 80
-32 85 -44 128 -43 156 0 15 -5 31 -12 35 -16 10 -46 66 -46 88 0 8 -7 15 -15
15 -15 0 -23 3 -84 34 -24 12 -71 18 -160 23 -69 3 -134 10 -143 15 -23 12
-23 35 1 47 15 8 20 25 23 83 5 79 -1 92 -83 183 -55 61 -79 122 -79 200 0
130 -41 201 -134 231 -63 21 -75 30 -69 53 4 14 -3 20 -29 25 -18 4 -73 28
-123 54 -77 40 -91 52 -100 80 -8 28 -13 33 -34 29 -13 -3 -47 6 -76 19 -29
13 -85 33 -124 43 -82 22 -98 31 -54 31 37 0 73 36 73 73 0 51 -84 121 -105
87 -3 -5 -15 -10 -25 -10 -24 0 -70 -45 -70 -68 0 -10 9 -25 20 -35 21 -18 26
-42 10 -52 -12 -8 -232 -23 -247 -18 -16 6 -45 63 -32 63 5 0 9 7 9 16 0 12
-7 15 -24 12 -20 -4 -28 2 -42 28 -10 18 -28 35 -40 38 -12 3 -37 18 -54 32
-27 24 -34 25 -54 14 -14 -7 -36 -9 -55 -5 -52 11 -71 -1 -71 -46 0 -28 -6
-42 -20 -51 -11 -7 -20 -21 -20 -30 0 -31 -52 -22 -104 17 -25 20 -46 41 -46
47 0 6 -18 26 -40 45 -22 19 -40 41 -40 48 0 8 -11 25 -24 38 -32 32 -73 117
-68 140 3 15 -1 18 -20 15 -19 -2 -24 2 -26 25 -2 17 -9 27 -20 27 -9 0 -28
13 -42 30 -17 21 -43 35 -80 46 -30 8 -63 18 -72 21 -12 4 -18 0 -18 -11z m88
-32 c34 -10 26 -20 -13 -16 -19 2 -49 -1 -67 -7 l-33 -11 24 20 c24 20 49 24
89 14z m78 -74 c50 -33 71 -61 126 -170 16 -30 26 -46 23 -35 -7 24 -7 24 49
-53 92 -125 140 -162 211 -162 25 0 35 -4 32 -12 -7 -21 -65 -12 -126 19 -45
23 -64 41 -101 95 -24 37 -46 66 -48 63 -6 -6 64 -109 95 -137 16 -15 58 -39
93 -54 36 -14 68 -29 72 -33 10 -9 -19 -115 -43 -163 -11 -22 -34 -48 -52 -58
-28 -18 -30 -20 -10 -20 35 0 76 67 113 182 37 116 53 153 84 187 l21 24 -27
-17 c-26 -17 -26 -17 -21 2 3 11 14 30 25 42 47 51 187 -12 209 -93 15 -55 6
-142 -19 -201 -17 -37 -34 -54 -86 -87 -78 -49 -88 -70 -79 -179 6 -80 -3
-102 -26 -62 -6 9 -11 14 -11 10 0 -4 16 -29 36 -54 71 -93 104 -185 104 -289
0 -157 -138 -491 -229 -552 -24 -16 -49 -23 -82 -23 -101 0 -113 23 -114 224
-2 142 -3 150 -25 168 -31 25 -123 24 -178 -2 -60 -29 -122 -36 -158 -17 -29
15 -64 48 -61 57 4 14 -30 48 -42 41 -7 -4 -34 -6 -61 -3 -30 3 -66 -2 -96
-12 -60 -20 -118 -21 -138 0 -18 17 -18 18 -21 90 -3 70 -32 115 -85 132 -36
11 -46 10 -90 -9 -55 -24 -102 -70 -126 -127 -9 -20 -36 -97 -59 -170 -42
-130 -80 -205 -100 -198 -5 1 -26 -5 -45 -15 -19 -10 -60 -19 -90 -20 l-54 -3
-32 59 c-18 33 -40 90 -50 127 -16 59 -16 74 -6 115 16 59 82 151 162 227 34
32 71 77 81 100 25 56 25 132 -2 175 -22 36 -19 61 6 61 8 0 15 4 15 9 0 19
-31 19 -94 0 -37 -11 -81 -19 -99 -17 -29 3 -32 6 -31 36 2 41 49 113 119 182
53 52 55 53 55 28 0 -44 17 -41 29 6 24 98 133 186 228 186 79 0 121 -20 200
-92 72 -67 213 -149 213 -123 0 15 -46 57 -95 85 -51 29 -95 70 -95 87 0 8 14
13 38 14 23 1 6 6 -48 14 -138 21 -225 37 -230 42 -3 3 41 3 97 -1 91 -6 178
-20 268 -43 l30 -8 -40 -6 c-29 -4 -14 -7 50 -8 82 -1 96 2 150 29 71 35 93
38 65 10 -11 -11 -20 -24 -20 -30 0 -5 -10 -10 -22 -10 -60 0 -91 -90 -46
-137 27 -29 44 -30 24 -1 -9 12 -16 33 -16 46 0 26 29 87 37 78 3 -3 0 -12 -7
-21 -17 -20 -3 -35 59 -64 32 -15 48 -28 44 -37 -7 -20 41 -40 69 -27 39 17
119 -4 156 -42 42 -43 183 -101 209 -86 16 9 15 10 -8 11 -19 0 -28 6 -33 22
-3 13 -2 26 3 31 8 8 -3 57 -20 87 -5 8 -28 53 -52 100 -55 110 -93 148 -187
184 -103 40 -159 80 -160 115 0 7 18 -3 40 -23 39 -35 82 -47 95 -26 11 17
-15 40 -45 40 -35 0 -53 22 -75 90 -10 30 -22 61 -28 68 -6 8 -5 18 4 30 30
37 44 43 99 39 42 -2 67 -11 106 -37z m-146 -270 c6 0 10 -4 10 -10 0 -14 -51
9 -72 33 -32 34 -19 40 17 8 20 -17 40 -31 45 -31z m1355 -45 c30 -29 32 -56
5 -80 -23 -21 -26 -14 -8 15 14 22 3 50 -23 58 -11 4 -12 2 -1 -9 17 -19 15
-24 -14 -38 -31 -14 -44 -7 -44 22 0 20 0 20 -15 1 -14 -19 -14 -19 -15 0 -1
54 73 74 115 31z m-2090 -75 c-20 -5 -110 -56 -152 -86 -13 -9 -23 -14 -23
-11 0 8 118 89 150 103 14 6 29 9 35 6 5 -4 1 -9 -10 -12z m595 5 c0 -9 -55
-33 -90 -39 -29 -6 -26 -2 20 18 56 26 70 30 70 21z m1069 -51 c24 -41 25 -39
-6 -48 -22 -7 -23 -4 -23 38 0 25 2 46 4 46 2 0 14 -16 25 -36z m209 -33 c11
-7 10 -10 -3 -15 -23 -8 -89 -8 -112 1 -14 6 -11 9 17 14 53 10 84 10 98 0z
m237 -10 c51 -10 187 -76 210 -101 18 -20 17 -20 -52 -20 -75 0 -77 1 -182 85
-51 40 -65 63 -33 50 9 -3 35 -10 57 -14z m-36 -64 c26 -24 58 -50 71 -57 l23
-12 -34 -13 c-74 -28 -95 -35 -121 -40 -15 -3 -39 -16 -55 -29 -24 -20 -25
-26 -14 -40 7 -9 18 -16 24 -16 7 0 7 4 -1 12 -7 7 -12 15 -12 20 0 18 51 38
120 48 41 6 79 15 84 20 6 6 40 10 76 10 69 0 162 -29 217 -68 50 -34 97 -55
133 -57 63 -4 147 -43 167 -78 24 -40 42 -131 36 -174 -3 -18 2 -56 12 -86 16
-51 33 -75 118 -171 30 -33 34 -44 31 -83 -2 -28 -13 -60 -28 -84 -14 -21 -26
-43 -26 -48 0 -5 -7 -11 -15 -15 -8 -3 -20 -17 -25 -31 -6 -15 -17 -25 -29
-25 -15 0 -22 13 -35 73 -9 39 -19 81 -22 92 -5 18 -1 20 49 17 82 -5 105 27
72 104 -12 29 -19 35 -35 31 -14 -3 -27 4 -45 24 -23 28 -55 114 -55 149 0 28
-29 114 -45 135 -12 16 -11 9 4 -30 10 -27 26 -86 36 -130 24 -112 47 -149
108 -179 15 -8 23 -22 25 -44 3 -31 3 -32 -38 -32 -34 0 -48 6 -74 33 -18 17
-40 52 -49 77 -9 25 -26 71 -38 103 -35 97 -31 58 8 -63 32 -103 36 -127 37
-232 1 -103 -1 -120 -20 -144 -34 -47 -50 -51 -79 -24 -14 13 -25 30 -25 37 0
8 -8 30 -19 51 -10 20 -26 75 -36 121 -9 47 -21 94 -25 105 -4 12 -16 50 -25
86 -23 85 -25 92 -68 180 -56 114 -70 128 -157 151 -51 13 -89 17 -119 13
l-43 -7 6 -43 c3 -24 9 -56 12 -70 5 -19 3 -25 -4 -20 -8 5 -9 -9 -5 -46 7
-67 13 -74 14 -17 1 37 2 40 9 19 l8 -25 1 25 c0 14 -6 52 -14 85 -8 33 -14
64 -15 69 0 16 125 -1 168 -23 85 -43 132 -147 182 -395 17 -82 30 -155 30
-162 0 -11 -18 -13 -87 -8 -81 6 -140 1 -345 -26 -42 -6 -116 -23 -165 -39
-125 -41 -260 -78 -314 -84 -44 -6 -46 -5 -61 28 -13 29 -13 38 -1 66 10 25
11 39 2 64 -10 26 -9 50 5 121 10 49 24 99 32 112 8 13 48 38 87 56 74 34 141
95 174 161 9 17 31 52 50 78 28 37 38 45 49 37 21 -18 33 -68 43 -174 13 -134
38 -166 117 -151 44 8 63 38 69 106 4 53 3 51 -16 -23 -12 -49 -33 -68 -72
-68 -64 0 -77 31 -77 181 0 104 -1 111 -26 135 -18 19 -31 24 -50 20 -19 -5
-24 -2 -24 11 0 10 -18 -18 -40 -62 -72 -144 -142 -205 -237 -207 -58 -1 -80
21 -107 107 -19 59 -32 95 -56 147 -17 36 -17 100 -1 130 7 14 28 32 46 41 32
15 66 52 137 147 39 52 77 76 103 66 17 -6 16 -8 -6 -23 -33 -22 -49 -43 -49
-66 0 -16 8 -12 45 22 57 52 95 58 45 6 -18 -19 -31 -38 -27 -41 6 -7 73 31
118 67 39 31 98 48 132 38 16 -4 50 -28 76 -52z m-1068 -108 c43 -24 76 -45
74 -47 -7 -7 -100 28 -120 46 -29 24 -65 73 -65 86 0 6 8 -1 17 -16 9 -15 52
-46 94 -69z m1543 -78 c34 -37 11 -32 -25 5 -21 23 -26 33 -14 26 11 -5 29
-20 39 -31z m-2769 -187 c23 -9 45 -57 45 -97 0 -30 -15 -51 -103 -151 -104
-117 -153 -196 -164 -261 -3 -20 -8 -34 -12 -32 -3 1 -28 13 -55 26 l-49 23
29 13 c17 7 42 27 57 44 26 31 27 38 27 136 0 128 17 173 94 251 55 54 85 65
131 48z m-484 -114 c35 -11 84 -32 109 -46 50 -28 43 -26 -85 21 -49 18 -97
35 -105 38 -12 5 -12 6 1 6 9 1 45 -8 80 -19z m-1 -38 c41 -17 95 -36 120 -42
77 -20 100 -37 100 -71 0 -17 -11 -45 -26 -64 -22 -29 -23 -36 -12 -54 11 -17
10 -23 -4 -37 -25 -25 -59 -11 -134 55 -121 108 -250 110 -337 6 -37 -45 -70
-116 -118 -255 -24 -71 -53 -135 -66 -149 -13 -13 -23 -19 -23 -13 0 31 75
234 114 310 25 47 43 88 41 90 -17 18 -106 -115 -134 -201 -11 -34 -27 -102
-36 -152 -13 -77 -13 -97 -1 -141 9 -35 10 -57 3 -69 -5 -10 -7 -39 -4 -64 5
-41 3 -47 -14 -47 -16 0 -19 8 -21 51 -7 201 30 388 112 563 53 113 27 99 -32
-17 -96 -191 -144 -394 -135 -571 6 -121 28 -193 88 -281 79 -117 169 -171
225 -134 l27 17 -7 -28 c-4 -16 -15 -42 -25 -59 -22 -38 -56 -38 -135 -2 -72
33 -131 97 -189 202 -76 138 -99 262 -76 411 13 84 14 87 19 44 l5 -45 8 58
c16 124 119 386 197 504 56 82 141 163 205 195 53 26 68 29 125 25 40 -3 94
-16 140 -35z m-284 15 c-53 -34 -120 -93 -155 -137 -47 -60 -137 -234 -181
-353 -18 -48 -35 -85 -37 -83 -9 9 59 192 108 292 34 71 68 122 111 169 58 63
140 125 163 124 6 0 2 -6 -9 -12z m1251 -142 c26 -19 42 -63 46 -134 3 -44 8
-57 30 -73 38 -28 87 -32 150 -14 80 23 100 21 181 -24 82 -45 131 -51 208
-24 66 22 116 16 142 -19 18 -25 19 -31 7 -70 -25 -84 -25 -87 1 -115 21 -22
24 -34 21 -64 -3 -21 -8 -38 -13 -38 -4 0 -33 9 -66 20 -128 44 -520 124 -629
129 -109 4 -309 39 -321 56 -12 16 -8 55 6 55 11 0 33 67 26 79 -3 5 1 11 9
15 8 3 15 14 15 24 0 10 5 23 11 29 5 5 12 24 14 40 4 33 63 105 105 127 33
18 32 18 57 1z m-1035 -106 c73 -28 118 -64 118 -94 0 -13 -4 -27 -10 -30 -5
-3 -10 -19 -10 -34 0 -26 -31 -71 -49 -71 -5 0 -9 -15 -9 -33 0 -18 -9 -50
-21 -70 -12 -21 -21 -42 -21 -48 0 -6 -13 -41 -30 -79 -16 -38 -30 -79 -30
-93 0 -13 -6 -30 -14 -36 -8 -7 -17 -30 -21 -52 -4 -21 -11 -41 -16 -45 -5 -3
-9 -20 -9 -37 0 -18 -13 -68 -28 -112 -23 -66 -31 -81 -51 -83 -36 -5 -64 5
-97 35 -59 54 -99 167 -89 258 6 65 26 150 38 161 4 4 7 20 7 35 0 15 5 31 10
34 6 3 10 17 10 31 0 23 3 33 28 81 7 13 12 28 12 34 0 6 12 34 26 63 15 28
35 67 45 86 24 47 65 89 103 106 41 18 47 17 108 -7z m3050 -225 c53 -9 59
-27 123 -376 26 -140 43 -203 44 -163 1 11 -10 106 -24 210 -29 221 -30 248
-11 264 12 10 18 7 30 -17 8 -15 22 -34 31 -42 13 -11 18 -10 30 6 8 10 15 30
15 43 0 13 2 22 5 19 12 -11 84 -435 99 -578 23 -224 36 -300 55 -345 25 -56
55 -80 97 -77 18 2 34 -1 34 -5 0 -15 -43 -51 -56 -46 -15 6 -20 -12 -5 -21 4
-3 11 -31 14 -62 4 -42 2 -63 -10 -80 -15 -23 -14 -24 13 -30 36 -7 78 -66 60
-84 -8 -8 -5 -16 13 -29 25 -19 22 -44 -4 -34 -10 3 -15 -2 -15 -17 0 -16 -5
-20 -17 -16 -69 21 -181 29 -413 31 l-265 3 -44 41 c-24 23 -48 41 -52 41 -4
0 -9 15 -11 33 -2 25 -10 35 -35 46 -23 10 -34 23 -39 45 -3 17 -15 40 -25 51
-18 20 -18 21 14 38 17 10 48 39 66 64 32 41 35 51 35 117 1 64 3 73 28 94 15
13 30 32 33 42 11 34 21 22 34 -41 21 -106 22 -58 1 77 -44 274 -50 307 -56
313 -7 6 2 -120 13 -179 l6 -35 -37 33 c-20 17 -43 32 -51 32 -17 0 -16 -3
-59 210 -69 347 -68 355 21 343 39 -5 42 -8 53 -49 7 -24 17 -44 22 -44 6 0 7
8 3 18 -16 41 -16 69 -1 81 9 8 16 24 16 37 0 29 21 31 45 4 13 -14 15 -23 7
-33 -8 -10 -2 -12 29 -9 50 5 73 -14 106 -87 31 -70 47 -133 73 -288 12 -71
37 -189 56 -263 43 -169 51 -248 30 -315 -16 -52 -14 -67 7 -46 16 16 16 239
-1 306 -7 28 -14 59 -16 70 -3 11 -9 40 -15 65 -5 25 -17 95 -26 155 -20 132
-65 299 -95 353 -13 22 -35 50 -51 61 -25 19 -27 24 -17 46 12 26 26 29 90 19z
m-2781 -115 c-22 -52 -67 -164 -101 -249 -34 -85 -65 -159 -69 -163 -21 -22
-8 81 20 155 45 121 58 147 84 170 12 11 40 61 61 111 21 50 39 86 41 80 2 -6
-14 -53 -36 -104z m3649 97 c145 -31 192 -71 234 -201 17 -50 31 -94 32 -100
1 -5 11 -43 22 -82 11 -40 16 -73 12 -73 -4 0 -10 14 -14 31 -10 51 -84 199
-124 248 -57 70 -91 98 -162 133 -56 28 -78 33 -165 37 -73 3 -92 7 -70 12 31
8 190 4 235 -5z m-280 -293 c29 -108 64 -295 95 -508 8 -55 19 -130 25 -167
13 -84 13 -256 1 -243 -22 23 -43 120 -61 274 -38 320 -74 544 -124 776 -9 39
-15 84 -15 100 1 34 27 -44 79 -232z m-2826 228 c21 -5 54 -24 72 -42 37 -36
54 -33 36 6 -14 31 -22 31 177 5 131 -16 163 -24 220 -52 68 -34 87 -62 57
-87 -11 -9 -25 -9 -60 0 -58 14 -111 5 -131 -24 -17 -24 -89 -239 -99 -297
-11 -57 9 -16 58 121 24 68 47 132 51 142 13 32 145 13 145 -22 0 -13 -7 -17
-27 -16 -16 1 -20 0 -9 -2 16 -4 18 -11 13 -56 -10 -83 -168 -652 -231 -833
-50 -144 -112 -295 -134 -324 -62 -83 -232 -16 -232 91 0 24 -4 38 -10 34 -5
-3 -10 -22 -10 -41 0 -71 114 -154 195 -141 19 3 35 4 35 3 0 -11 -54 -96 -70
-111 -18 -16 -25 -17 -76 -6 -69 16 -81 8 -26 -17 32 -14 39 -21 30 -30 -17
-17 -47 -14 -96 8 -23 11 -100 35 -169 55 -70 19 -129 39 -132 43 -10 15 -49
32 -74 32 -13 0 -40 10 -58 23 -19 13 -39 22 -45 20 -6 -2 -43 14 -81 37 -39
22 -74 40 -79 40 -5 1 -29 19 -54 42 l-45 42 55 -30 c68 -38 107 -52 70 -26
-99 69 -142 106 -150 126 -15 40 5 97 49 137 21 20 46 51 55 68 29 55 60 30
50 -41 -6 -45 7 -88 26 -88 6 0 5 8 -1 19 -16 24 1 91 49 196 28 63 44 85 69
97 l32 17 -13 -37 c-7 -20 -16 -50 -20 -67 l-7 -29 22 19 c31 28 105 189 183
400 37 99 87 230 111 290 23 61 46 124 50 142 3 18 17 40 30 50 13 10 42 42
64 71 45 56 58 60 135 43z m2991 -1 c-3 -5 -13 -10 -21 -10 -29 0 -12 -16 36
-33 83 -30 176 -137 205 -237 6 -22 3 -20 -25 12 -17 21 -59 54 -93 74 -34 19
-82 55 -107 79 -25 23 -61 48 -82 54 -45 15 -54 35 -25 56 24 17 122 21 112 5z
m143 -19 c80 -41 165 -155 209 -283 62 -177 91 -507 59 -658 -22 -102 -72
-204 -137 -274 -30 -33 -44 -54 -33 -48 42 22 128 128 161 197 50 107 66 196
61 350 -3 93 -2 117 4 85 12 -59 4 -320 -12 -390 -7 -30 -19 -65 -27 -77 -9
-13 -13 -23 -9 -23 7 0 -14 -26 -57 -70 -30 -31 -125 -87 -140 -82 -4 1 -21
-7 -37 -18 -75 -54 -162 -75 -174 -43 -9 22 -1 27 69 49 106 32 201 150 240
300 67 257 22 638 -102 859 -23 41 -41 59 -123 125 -21 16 -22 19 -7 20 10 0
35 -9 55 -19z m-1383 -4 c13 -10 17 -22 12 -43 -4 -22 1 -37 19 -59 23 -28 25
-29 38 -12 17 22 20 17 34 -48 17 -81 23 -134 12 -107 -17 41 -23 23 -17 -55
l6 -78 -34 -17 -33 -16 -6 30 c-3 17 -6 43 -6 59 0 15 -5 31 -11 35 -9 5 -10
-14 -5 -73 6 -66 4 -82 -8 -93 -9 -7 -16 -18 -16 -26 0 -7 -4 -15 -9 -18 -10
-7 -53 171 -72 297 -7 48 -17 87 -21 87 -12 0 -10 -29 11 -131 37 -180 57
-499 31 -499 -5 0 -10 5 -10 10 0 6 -8 10 -19 10 -14 0 -20 10 -24 38 -3 20
-15 91 -27 157 -12 69 -23 185 -26 274 -5 145 -4 154 11 141 15 -13 17 -12 14
5 -5 24 -50 48 -64 34 -14 -14 -10 -102 8 -189 19 -93 38 -249 42 -355 2 -44
8 -102 14 -128 12 -50 6 -112 -12 -134 -14 -19 -37 -16 -37 6 0 27 -46 222
-59 251 -13 27 -13 28 8 -120 14 -98 17 -165 6 -163 -6 1 -13 19 -17 42 -9 51
-26 83 -40 75 -7 -4 -8 -36 -3 -93 10 -124 12 -132 41 -125 23 6 24 4 17 -27
-13 -68 -20 -84 -37 -87 -14 -3 -16 1 -11 16 4 15 0 24 -14 31 -16 9 -19 18
-14 45 4 24 0 42 -15 62 -26 37 -48 174 -33 203 19 35 13 86 -13 113 -18 17
-28 43 -36 89 -14 85 -25 336 -16 382 8 42 26 50 26 12 0 -14 5 -44 10 -67 6
-24 21 -107 35 -185 23 -129 62 -279 72 -270 2 2 -11 85 -28 183 -21 121 -32
221 -34 309 -3 114 -2 122 6 65 38 -253 62 -404 68 -427 7 -26 8 -25 15 17 5
29 -2 125 -20 274 -26 223 -26 230 -8 243 27 20 112 43 158 43 23 0 48 5 56
10 22 14 63 12 85 -3z m899 -133 c3 -27 3 -40 0 -29 -8 29 -24 43 -24 21 0 -9
-4 -14 -10 -11 -5 3 -10 19 -10 36 0 16 5 29 10 29 6 0 10 10 11 23 0 22 0 22
9 1 5 -12 11 -43 14 -70z m-3020 57 c3 -5 -8 -40 -25 -77 -23 -52 -28 -73 -21
-89 8 -17 -3 -53 -53 -171 -35 -82 -70 -150 -78 -152 -8 -2 -33 -49 -57 -105
-40 -97 -70 -147 -70 -119 0 12 69 186 183 464 36 87 73 180 82 208 16 48 28
60 39 41z m2940 -17 c10 -26 7 -55 -8 -69 -11 -12 -14 -8 -20 23 -3 20 -6 43
-6 50 0 18 27 15 34 -4z m320 10 c26 -10 18 -22 -21 -33 -51 -14 -53 -14 -53
8 0 27 37 39 74 25z m-3711 -93 c-17 -50 -33 -67 -33 -36 0 20 40 99 46 92 3
-3 -3 -28 -13 -56z m217 -76 c-23 -57 -46 -103 -50 -100 -5 3 7 45 27 93 42
104 53 126 60 118 3 -3 -14 -53 -37 -111z m3187 65 c-3 -11 -1 -23 4 -26 5 -3
9 -13 8 -22 0 -12 -4 -9 -11 8 l-11 25 -7 -25 c-5 -14 -8 -18 -9 -9 -1 15 21
69 28 69 2 0 1 -9 -2 -20z m394 6 c49 -21 86 -59 117 -124 33 -66 55 -139 81
-270 15 -73 14 -124 -4 -211 -20 -96 -46 -151 -94 -201 -58 -61 -60 -60 -84
68 -8 40 -10 75 -6 78 14 8 11 36 -6 54 -18 20 -33 94 -36 180 -1 36 -7 79
-12 97 -8 24 -7 38 3 58 11 21 11 27 -2 42 -21 25 -29 51 -18 58 6 4 10 30 10
58 0 40 -5 57 -20 70 -52 45 -3 74 71 43z m-3509 -50 c2 -50 14 -54 35 -12 16
35 41 52 29 20 -3 -9 -6 -20 -6 -24 0 -5 -8 -17 -19 -27 -10 -10 -21 -31 -25
-48 -10 -42 -67 -185 -77 -190 -12 -8 10 64 42 134 32 70 27 100 -11 66 -11
-10 -22 -16 -24 -14 -4 5 47 139 51 135 2 -2 4 -20 5 -40z m1463 14 c0 -8 -8
-16 -17 -18 -13 -2 -18 3 -18 18 0 15 5 20 18 18 9 -2 17 -10 17 -18z m1718
-195 c9 -55 19 -119 22 -143 4 -23 11 -40 16 -37 9 6 10 4 35 -137 10 -56 13
-104 9 -115 -8 -16 -9 -15 -12 7 -2 14 -6 36 -9 50 -6 23 -7 24 -14 5 -7 -16
-9 -14 -9 13 -1 31 -14 42 -26 23 -8 -14 6 -121 16 -115 9 5 33 -35 25 -43 -3
-3 -14 5 -25 18 -25 30 -55 160 -71 304 -6 61 -16 134 -21 164 -12 70 -11 91
1 91 5 0 7 -6 4 -14 -3 -8 -1 -17 4 -20 6 -4 8 12 5 42 -4 47 -4 47 15 27 13
-14 24 -51 35 -120z m546 103 l15 -23 6 25 c5 19 13 0 39 -87 61 -211 72 -321
46 -460 -30 -157 -118 -289 -225 -337 -34 -15 -64 -26 -66 -23 -2 2 19 22 48
43 37 28 62 58 89 109 61 111 74 182 74 385 0 173 -5 208 -51 373 -7 24 9 21
25 -5z m-2329 -63 c0 -12 -60 -185 -70 -206 -7 -12 -16 -17 -21 -12 -7 7 47
183 67 214 6 10 24 13 24 4z m-1288 -28 c-6 -7 -22 -48 -37 -92 -26 -77 -48
-115 -60 -103 -9 9 86 218 97 212 5 -4 5 -10 0 -17z m3222 -137 c9 -58 23
-152 31 -210 8 -58 20 -132 26 -165 19 -109 28 -200 19 -209 -4 -4 -11 23 -15
60 -10 89 -19 108 -45 92 -10 -7 -22 -9 -26 -6 -12 13 -17 95 -5 102 7 5 11
-3 11 -23 0 -16 5 -33 12 -37 12 -8 8 80 -13 251 -22 188 -26 268 -14 253 2
-2 10 -50 19 -108z m-916 -212 c12 -84 22 -162 22 -172 0 -10 7 -24 17 -31 14
-11 13 -16 -18 -49 -28 -30 -44 -39 -79 -43 -39 -4 -50 0 -82 27 -34 28 -36
33 -26 55 11 25 11 25 25 5 8 -11 19 -20 25 -20 6 0 20 -7 29 -16 17 -16 21
-15 55 11 l37 28 -7 81 c-4 45 -11 97 -16 116 -14 57 -23 160 -13 160 5 0 19
-69 31 -152z m-2857 2 c16 0 10 -18 -15 -47 -26 -30 -48 -25 -28 7 7 11 12 30
12 43 0 31 14 45 18 18 2 -12 8 -21 13 -21z m1719 31 c0 -19 -23 -71 -31 -71
-12 0 -11 22 1 54 9 24 30 36 30 17z m-1503 -158 c-19 -48 -40 -106 -46 -128
-13 -47 -27 -72 -36 -63 -4 3 0 19 8 35 8 15 26 62 40 103 34 100 57 153 63
147 3 -3 -10 -45 -29 -94z m1618 -300 c-14 -32 -31 -62 -38 -68 -18 -15 -58
-105 -52 -116 8 -12 -25 -80 -35 -74 -7 5 -18 -18 -36 -80 -6 -20 -17 -31 -32
-33 -23 -4 -32 21 -11 34 6 4 9 19 5 36 -4 22 8 59 56 160 34 72 64 126 66
120 2 -6 -2 -20 -8 -31 -6 -12 -7 -21 -2 -21 5 0 22 24 37 53 16 30 38 58 49
64 12 6 22 11 23 12 2 0 -9 -25 -22 -56z m2025 -3 c0 -25 -27 -37 -43 -21 -9
10 -8 16 7 27 27 19 36 18 36 -6z m-1040 -58 c0 -30 -48 -136 -69 -153 -11 -9
-44 -24 -73 -34 -29 -9 -91 -34 -137 -56 -46 -22 -85 -38 -87 -37 -1 2 -5 19
-9 39 -6 34 -5 36 33 47 22 7 46 12 55 12 9 0 19 5 23 11 4 7 -10 9 -48 4
l-54 -7 -11 36 c-10 32 -9 38 10 51 56 39 334 123 360 108 4 -2 7 -12 7 -21z
m1104 -96 c3 -13 9 -32 13 -42 6 -15 4 -16 -8 -6 -8 7 -23 19 -33 26 -12 8
-17 19 -13 30 9 24 34 19 41 -8z m-334 -56 c134 -12 150 -16 150 -37 0 -12 -7
-14 -32 -10 -210 37 -279 34 -608 -27 -228 -43 -451 -93 -461 -103 -10 -10 -9
-17 6 -33 23 -25 20 -27 -43 -44 -57 -14 -61 -12 -57 42 1 21 -3 36 -12 39
-51 20 58 78 167 89 19 2 53 6 75 9 83 11 152 17 217 17 65 1 67 2 73 29 6 26
11 28 58 32 115 8 359 6 467 -3z m-1454 -91 c30 -85 42 -159 25 -159 -6 0 -12
6 -12 13 -5 43 -8 58 -21 107 -19 66 -30 126 -23 118 3 -3 17 -38 31 -79z
m1487 31 c96 -14 119 -25 115 -52 -3 -22 -5 -22 -134 -19 -87 2 -134 -1 -138
-8 -5 -7 4 -11 24 -11 17 0 74 -5 126 -12 105 -13 132 -34 32 -25 -95 8 -418
-12 -538 -33 -30 -5 -68 -11 -85 -14 l-30 -4 22 17 c12 10 56 23 100 30 136
20 143 22 143 31 0 12 -89 12 -150 0 -42 -8 -71 -3 -42 7 6 3 12 17 12 32 0
27 3 29 73 40 187 32 347 38 470 21z m-1247 -60 c1 -14 6 -38 13 -53 15 -38
15 -37 -18 -37 -38 0 -53 20 -45 59 5 26 3 31 -12 31 -16 0 -15 3 6 14 35 20
55 15 56 -14z m-1031 -40 c3 -5 17 -10 31 -10 14 0 22 -4 19 -10 -3 -5 -21
-10 -40 -10 -19 0 -37 5 -40 10 -7 12 2 30 15 30 5 0 12 -4 15 -10z m-943
-131 c132 -65 210 -97 260 -104 60 -9 133 -40 136 -59 2 -9 -2 -16 -10 -16
-29 0 -228 72 -254 91 -5 5 -20 6 -31 3 -14 -4 -29 2 -44 17 -12 12 -58 40
-101 60 -43 21 -78 43 -78 49 0 17 18 12 122 -41z m2693 42 c-10 -9 -256 -63
-262 -57 -7 6 210 63 252 65 11 1 15 -3 10 -8z m-860 -21 c8 -25 -1 -40 -25
-40 -25 0 -31 21 -12 43 20 22 29 22 37 -3z m-1139 -45 c43 -22 134 -39 146
-27 11 11 66 -1 82 -19 12 -13 -47 -9 -185 12 -83 12 -105 21 -95 38 9 15 18
14 52 -4z m2254 -14 c0 -11 -117 -25 -146 -19 -17 4 -16 6 6 16 31 13 140 16
140 3z m-1182 -74 c14 -53 7 -78 -13 -51 -12 18 -18 123 -6 107 4 -4 13 -30
19 -56z m1095 28 c3 -13 -49 -19 -82 -9 -24 7 -22 8 19 14 54 8 61 7 63 -5z
m-189 -13 c10 -16 -10 -29 -51 -35 -24 -3 -45 -2 -48 3 -7 12 17 28 50 33 17
2 33 5 37 6 4 0 9 -3 12 -7z m595 -64 c20 -49 20 -52 4 -71 -10 -10 -29 -25
-43 -32 -53 -28 -298 -94 -480 -130 -14 -3 -36 -8 -50 -11 -38 -9 -243 -6
-353 5 -125 12 -167 35 -167 90 0 28 7 44 28 63 25 24 30 25 87 17 70 -10 204
-5 398 17 131 15 184 14 121 -2 -34 -8 -74 -33 -74 -44 0 -16 114 -32 180 -26
78 8 197 43 225 66 11 9 28 20 37 23 10 3 20 19 24 34 7 30 22 53 34 53 4 0
17 -23 29 -52z m-2346 35 c4 -3 28 -7 54 -7 40 -1 49 -5 61 -26 14 -24 13 -28
-12 -54 -14 -16 -26 -33 -26 -37 0 -5 -6 -9 -14 -9 -7 0 -20 -9 -27 -21 -20
-29 -43 -16 -59 31 -7 22 -20 42 -29 45 -11 3 -17 18 -17 45 -1 39 0 40 31 40
17 0 35 -3 38 -7z m-249 -94 c63 -12 90 -34 75 -62 -12 -21 -23 -21 -151 2
-36 6 -48 5 -48 -4 0 -7 -14 -18 -30 -25 -39 -16 -53 -4 -70 55 -11 38 -10 48
3 69 l16 24 78 -25 c43 -13 100 -29 127 -34z"/>
<path d="M2410 3949 c24 -22 53 -45 63 -51 16 -8 17 -7 9 9 -13 23 -50 57 -79
72 -40 21 -38 10 7 -30z"/>
<path d="M2921 3856 c-44 -55 -79 -172 -67 -221 10 -41 23 -29 28 28 4 44 34
122 75 198 6 10 -27 6 -36 -5z"/>
<path d="M2640 3619 c0 -8 11 -26 25 -39 32 -30 33 -10 0 27 -17 20 -24 23
-25 12z"/>
<path d="M1450 3606 c0 -31 51 -74 112 -95 34 -12 63 -19 66 -17 9 10 -9 23
-50 37 -23 7 -60 31 -80 51 -42 42 -48 45 -48 24z"/>
<path d="M1730 3590 c-11 -7 -6 -10 20 -10 37 0 59 -10 175 -78 45 -27 100
-49 155 -62 47 -11 109 -27 138 -36 30 -8 56 -14 58 -11 8 8 -65 38 -154 64
-50 14 -121 45 -166 71 -44 26 -94 52 -110 59 -38 14 -96 16 -116 3z"/>
<path d="M2926 3565 c-20 -20 -29 -53 -24 -91 3 -27 5 -24 31 30 28 60 25 92
-7 61z"/>
<path d="M1220 3509 c0 -32 17 -44 44 -31 14 6 26 16 26 22 0 6 -8 5 -21 -2
-17 -11 -22 -10 -35 6 -10 14 -14 16 -14 5z"/>
<path d="M1871 3368 c-1 -33 12 -42 39 -28 23 12 27 35 7 43 -8 3 -13 -2 -13
-14 1 -26 -18 -24 -26 3 -6 22 -6 22 -7 -4z"/>
<path d="M2520 3352 c0 -13 14 -21 53 -30 29 -6 64 -12 78 -12 30 0 77 -33
124 -86 23 -26 34 -34 35 -23 1 40 -105 121 -190 147 -74 22 -100 23 -100 4z"/>
<path d="M1526 3335 c5 -19 2 -25 -9 -25 -9 0 -17 8 -20 18 -4 16 -4 16 -12
-1 -11 -26 10 -45 33 -31 19 12 29 64 12 64 -6 0 -8 -10 -4 -25z"/>
<path d="M2471 3234 c-37 -47 -21 -119 35 -163 36 -28 41 -20 12 19 -19 26
-23 44 -23 101 0 38 -1 69 -2 69 -1 0 -11 -12 -22 -26z"/>
<path d="M1860 3040 c-15 -36 -6 -93 17 -111 15 -12 16 -12 7 6 -5 11 -9 46
-8 78 0 31 -1 57 -2 57 -1 0 -7 -13 -14 -30z"/>
<path d="M2770 2831 c-6 -17 -9 -35 -5 -40 8 -14 62 -14 70 -1 4 6 -6 7 -25 4
-25 -5 -30 -3 -30 12 0 32 16 47 44 42 14 -3 26 -1 26 3 0 5 -15 9 -34 9 -28
0 -36 -5 -46 -29z"/>
<path d="M1356 2725 c-37 -114 -54 -126 -146 -99 -25 7 -25 7 -7 -13 22 -25
79 -38 106 -23 28 14 70 107 78 168 3 29 4 52 1 52 -2 0 -16 -38 -32 -85z"/>
<path d="M3267 3533 c-4 -3 -7 -13 -7 -21 0 -12 4 -11 22 4 21 19 21 19 16 -3
-4 -16 -2 -20 8 -16 17 6 18 15 2 31 -13 13 -31 16 -41 5z"/>
<path d="M3798 3518 c19 -19 14 -28 -14 -28 -20 0 -25 4 -20 16 4 10 1 14 -6
12 -24 -8 -13 -33 15 -36 45 -5 60 4 47 28 -6 11 -16 20 -22 20 -9 0 -9 -3 0
-12z"/>
<path d="M3930 3405 c0 -2 18 -21 40 -42 23 -21 63 -79 91 -133 53 -100 58
-88 8 17 -37 77 -139 193 -139 158z"/>
<path d="M3185 3330 c-3 -5 0 -10 9 -10 8 0 25 -13 39 -29 25 -31 40 -32 30
-3 -15 43 -62 68 -78 42z"/>
<path d="M3071 3229 c-1 -26 5 -41 21 -55 14 -11 18 -13 11 -3 -7 8 -17 33
-22 55 l-9 39 -1 -36z"/>
<path d="M3811 3207 c19 -13 33 -31 33 -40 -1 -9 2 -14 7 -11 25 15 -22 74
-59 74 -8 0 0 -10 19 -23z"/>
<path d="M3187 3174 c-3 -4 -21 -10 -39 -14 l-33 -8 31 -1 c16 -1 39 6 50 14
10 8 14 15 8 15 -6 0 -13 -3 -17 -6z"/>
<path d="M3527 3106 c-3 -8 3 -25 14 -38 l19 -23 -6 30 c-8 38 -20 51 -27 31z"/>
<path d="M3360 3047 c0 -10 -4 -15 -10 -12 -5 3 -10 2 -10 -4 0 -16 21 -24 32
-13 7 7 7 16 -1 29 -10 17 -10 17 -11 0z"/>
<path d="M3690 2955 c0 -14 7 -28 15 -31 19 -8 45 13 44 35 0 11 -3 9 -9 -6
-13 -33 -44 -31 -38 2 3 14 1 25 -3 25 -5 0 -9 -11 -9 -25z"/>
<path d="M3835 2930 c-9 -28 2 -40 33 -39 25 2 25 2 3 6 -18 4 -22 10 -18 29
5 29 -9 32 -18 4z"/>
<path d="M3492 2888 c-21 -21 -14 -48 11 -48 20 1 20 2 4 11 -13 8 -15 14 -7
30 12 22 9 24 -8 7z"/>
<path d="M4111 2817 c-1 -39 19 -100 37 -110 5 -4 1 24 -9 61 -25 90 -27 93
-28 49z"/>
<path d="M710 3170 c8 -5 38 -17 65 -26 50 -17 131 -57 193 -96 36 -22 53 -17
36 10 -18 28 -83 60 -185 92 -100 31 -137 38 -109 20z"/>
<path d="M534 3101 c-56 -36 -116 -91 -100 -91 4 0 21 9 36 20 44 32 132 70
161 70 27 0 54 22 42 33 -19 20 -83 5 -139 -32z"/>
<path d="M606 3075 c-52 -14 -97 -42 -104 -64 -2 -7 23 1 57 18 42 21 75 31
107 31 40 0 45 2 34 15 -15 18 -29 18 -94 0z"/>
<path d="M1818 2760 c12 -5 22 -14 22 -21 0 -6 -7 -9 -15 -5 -8 3 -15 1 -15
-4 0 -16 17 -20 35 -6 26 19 12 46 -22 45 -27 0 -27 -1 -5 -9z"/>
<path d="M1584 2735 c-11 -45 37 -75 65 -41 20 24 -12 66 -50 66 -5 0 -11 -11
-15 -25z m54 -18 c2 -11 -3 -17 -17 -17 -23 0 -35 15 -26 31 10 15 39 6 43
-14z"/>
<path d="M2223 2724 c15 -8 25 -19 22 -24 -3 -5 -1 -11 4 -14 5 -4 13 -1 16 4
10 16 -24 50 -49 50 -18 -1 -18 -3 7 -16z"/>
<path d="M2065 2710 c-4 -7 -3 -16 3 -22 14 -14 45 -2 40 15 -6 16 -34 21 -43
7z"/>
<path d="M3628 2579 c-10 -5 -18 -17 -18 -25 0 -10 5 -12 18 -5 9 5 25 12 35
15 10 3 15 10 12 16 -8 13 -25 12 -47 -1z"/>
<path d="M3701 2519 c-1 -19 6 -44 14 -55 15 -18 16 -17 9 16 -4 19 -10 44
-15 55 -6 16 -8 13 -8 -16z"/>
<path d="M3615 2390 c3 -70 62 -392 84 -469 14 -47 58 -111 76 -111 8 0 15 5
15 10 0 6 -6 9 -12 8 -7 -2 -25 20 -39 48 -24 47 -51 171 -114 509 l-14 80 4
-75z"/>
<path d="M3670 1722 c0 -15 58 -90 79 -101 23 -13 98 -13 126 -1 14 6 8 8 -20
4 -61 -8 -114 14 -152 64 -18 24 -33 39 -33 34z"/>
<path d="M4030 1669 c1 -46 38 -212 39 -175 1 30 -28 197 -35 205 -2 2 -4 -11
-4 -30z"/>
<path d="M3900 1497 c0 -28 27 -104 35 -96 5 6 -13 88 -25 108 -7 13 -9 10
-10 -12z"/>
<path d="M1456 2519 c-19 -17 -33 -46 -47 -93 -22 -80 -11 -77 21 4 12 30 29
63 37 73 25 27 69 20 144 -20 65 -35 69 -39 69 -72 0 -25 3 -32 11 -24 6 6 9
23 7 39 -2 24 -15 36 -70 67 -87 50 -135 57 -172 26z"/>
<path d="M1476 2403 c-33 -51 -182 -495 -220 -658 -17 -70 15 -3 49 105 96
302 167 508 185 538 15 24 27 32 50 32 43 0 54 -28 46 -119 -4 -56 -3 -72 5
-64 6 6 14 43 17 82 6 92 -10 121 -68 121 -35 0 -43 -5 -64 -37z"/>
<path d="M1555 2023 c-101 -238 -262 -680 -251 -690 10 -10 35 50 191 467 118
316 137 371 133 376 -3 3 -36 -66 -73 -153z"/>
<path d="M1102 1607 c-42 -90 -62 -150 -68 -216 -5 -47 -2 -64 18 -101 39 -73
140 -111 183 -68 7 7 3 8 -11 4 -12 -4 -40 4 -74 21 -101 52 -113 122 -50 303
21 63 38 116 36 117 -2 2 -17 -25 -34 -60z"/>
<path d="M1024 1606 c-10 -26 4 -48 28 -44 17 2 23 10 23 28 0 18 -6 26 -23
28 -13 2 -25 -3 -28 -12z"/>
<path d="M1737 1483 c-8 -15 -35 -78 -61 -139 -56 -133 -69 -154 -87 -136 -19
18 -40 15 -37 -5 4 -25 18 -33 54 -33 29 0 34 5 62 69 59 132 118 341 69 244z"/>
<path d="M4540 1840 c0 -13 7 -20 20 -20 13 0 20 7 20 20 0 13 -7 20 -20 20
-13 0 -20 -7 -20 -20z"/>
<path d="M2596 4339 c-33 -26 -36 -84 -5 -123 19 -24 26 -26 104 -26 l83 0 -2
56 c-1 51 -5 59 -36 85 -43 36 -104 40 -144 8z m92 -21 c17 -17 15 -73 -2 -87
-24 -20 -66 12 -66 50 0 11 37 49 48 49 4 0 13 -5 20 -12z m68 -44 c7 -29 -11
-54 -38 -54 -15 0 -18 4 -13 18 3 9 9 29 12 44 6 32 30 27 39 -8z"/>
<path d="M4703 4250 c-19 -8 -23 -17 -23 -50 0 -47 14 -80 35 -80 8 0 31 -8
51 -17 25 -12 38 -14 41 -7 2 6 14 9 27 7 21 -4 24 0 29 42 9 62 1 90 -29 104
-29 13 -100 14 -131 1z m125 -26 c32 -21 31 -71 -4 -84 -34 -13 -33 -14 -27
24 4 28 1 36 -16 46 -12 6 -29 10 -39 9 -33 -3 -37 2 -12 16 27 15 62 11 98
-11z m-41 -45 c2 -8 -2 -21 -7 -29 -9 -13 -12 -12 -25 4 -11 15 -12 23 -3 33
13 16 32 12 35 -8z"/>
<path d="M1780 4235 c0 -8 -11 -22 -25 -31 -23 -15 -25 -22 -25 -99 0 -78 2
-85 26 -104 22 -17 41 -21 100 -21 76 0 83 4 64 40 -7 12 -7 27 0 45 6 14 7
51 4 81 -5 43 -10 54 -25 54 -10 0 -20 4 -24 9 -3 5 -19 12 -35 16 -17 4 -30
11 -30 16 0 5 -7 9 -15 9 -8 0 -15 -7 -15 -15z m82 -36 c30 -16 50 -73 43
-123 -8 -51 -56 -91 -98 -81 -37 10 -43 32 -7 27 22 -3 32 2 45 21 15 23 15
28 1 56 -18 34 -43 45 -81 35 -22 -5 -26 -4 -21 7 3 8 9 21 12 30 11 33 69 48
106 28z m-28 -112 c14 -22 -4 -52 -30 -52 -23 0 -31 39 -13 61 14 17 28 14 43
-9z"/>
<path d="M3354 4195 c-4 -8 -2 -28 4 -43 6 -15 13 -47 16 -72 14 -125 166 -99
166 28 0 72 -17 85 -118 96 -51 6 -63 4 -68 -9z m137 -25 c21 -17 21 -19 4
-13 -18 6 -18 5 -6 -10 7 -9 17 -14 22 -11 5 3 9 -6 9 -19 0 -28 -46 -53 -78
-43 -24 8 -35 42 -21 68 13 24 -6 25 -20 1 -8 -13 -10 -14 -11 -4 0 22 31 51
55 51 13 0 33 -9 46 -20z"/>
<path d="M950 4100 c-32 -32 -40 -65 -37 -150 l2 -78 80 -7 c91 -7 124 2 144
38 15 28 11 91 -10 148 -22 62 -135 93 -179 49z m112 -23 c5 -8 -1 -14 -20
-18 -15 -4 -19 -7 -10 -8 25 -2 48 -41 48 -81 0 -48 -38 -87 -69 -71 -62 34
-69 131 -11 155 8 3 2 3 -15 0 -37 -7 -45 -19 -45 -66 0 -25 8 -46 26 -67 28
-34 18 -43 -11 -11 -27 30 -32 128 -7 156 10 11 24 24 32 27 21 9 73 -1 82
-16z"/>
<path d="M3751 3962 c-6 -11 -26 -23 -45 -26 l-34 -7 1 -57 c0 -58 0 -58 37
-70 48 -15 138 -1 157 24 19 26 16 98 -4 122 -10 11 -37 23 -60 27 -35 5 -43
3 -52 -13z m62 -46 c9 -7 17 -20 17 -29 0 -20 -45 -51 -60 -42 -5 3 -10 2 -10
-3 0 -5 10 -14 23 -21 20 -11 20 -11 -8 -6 -32 6 -75 46 -75 70 0 36 78 58
113 31z"/>
<path d="M4460 570 c0 -13 7 -20 20 -20 13 0 20 7 20 20 0 13 -7 20 -20 20
-13 0 -20 -7 -20 -20z"/>
</g>
</svg>
